<svg id="Layer_2" data-name="Layer 2" xmlns="http://www.w3.org/2000/svg" viewBox="0 0 436.34 317.22"><defs><style>.cls-1{fill:none;stroke:#231f20;stroke-miterlimit:10;stroke-width:5px;}</style></defs><rect class="cls-1" x="92.5" y="2.5" width="262" height="242"/><polyline class="cls-1" points="354.5 255.83 354.5 244.5 2.5 244.5 2.5 255.83 128.35 255.83"/><rect class="cls-1" x="2.5" y="2.5" width="90" height="10.47"/><path class="cls-1" d="M436.33,397.22" transform="translate(-81.83 -141.39)"/><line class="cls-1" x1="115.87" y1="289.01" x2="28.42" y2="282.44"/><line class="cls-1" x1="30.82" y1="255.83" x2="30.82" y2="284.54"/><line class="cls-1" x1="178.5" y1="289.64" x2="413.33" y2="255.83"/><line class="cls-1" x1="237.42" y1="255.83" x2="237.42" y2="281.16"/><line class="cls-1" x1="290.63" y1="255.83" x2="290.63" y2="273.5"/><line class="cls-1" x1="342.58" y1="257.19" x2="342.58" y2="266.02"/><rect class="cls-1" x="354.5" y="250.17" width="79.34" height="5.67"/><circle class="cls-1" cx="147.48" cy="282.44" r="32.28"/><path class="cls-1" d="M210.18,397.22" transform="translate(-81.83 -141.39)"/><line class="cls-1" x1="354.5" y1="255.83" x2="165.74" y2="255.83"/></svg>