<svg id="flexy" xmlns="http://www.w3.org/2000/svg" viewBox="0 0 960 400"><defs><style>.cls-1{fill:#2c363e;}</style></defs><path class="cls-1" d="M959.49,318.58h-81.4V48.64H586.91V59.15H500.68V48.64H414.17V59.15H185V48.64H.51V326.57L0,330l328.37,48.37.51-3.46v3.5h24.44a34,34,0,0,0,63.33,0h28.63a34,34,0,0,0,63.33,0h20.47V375l.5,3.46,336.21-49.16h93.7ZM586.91,79.11V318.58H500.68V79.11ZM185,79.11H414.17V318.58H185ZM325.38,329.25v41.64L42.7,329.25ZM477,331.92a34.07,34.07,0,0,0-33.6,39.53H418.58a34,34,0,1,0-67.19,0h-19v-42.2h193.2v42.2h-15A34,34,0,0,0,477,331.92Zm55.63,39V329.25H817.41Z"/></svg>