<svg id="Layer_2" data-name="Layer 2" xmlns="http://www.w3.org/2000/svg" viewBox="0 0 380.89 158.13"><defs><style>.cls-1{fill:#231f20;}.cls-1,.cls-2{stroke:#231f20;stroke-miterlimit:10;stroke-width:3px;}.cls-2{fill:none;}</style></defs><rect class="cls-1" x="228.37" y="1.5" width="107.68" height="116.77"/><polyline class="cls-2" points="336.05 124.46 336.05 118.27 1.5 118.27 1.5 124.46 129.7 124.46"/><path class="cls-2" d="M446,345.39" transform="translate(-109.99 -220.94)"/><line class="cls-2" x1="209.95" y1="142.01" x2="336.05" y2="124.46"/><line class="cls-2" x1="210.79" y1="124.46" x2="210.79" y2="141.78"/><line class="cls-2" x1="253.08" y1="125.07" x2="253.08" y2="135.97"/><line class="cls-2" x1="292.07" y1="125.38" x2="292.07" y2="130.58"/><rect class="cls-2" x="336.05" y="121.36" width="43.34" height="3.1"/><circle class="cls-2" cx="182.25" cy="138.99" r="17.63"/><path class="cls-2" d="M322.49,345.39" transform="translate(-109.99 -220.94)"/><line class="cls-2" x1="336.05" y1="124.46" x2="191.99" y2="124.46"/><rect class="cls-1" x="176.37" y="1.5" width="28.69" height="116.77"/><rect class="cls-2" x="82.28" y="7.72" width="94.09" height="110.55"/><rect class="cls-2" x="205.06" y="7.72" width="23.31" height="110.55"/><circle class="cls-2" cx="140.56" cy="138.99" r="17.63"/><rect class="cls-1" x="1.5" y="1.5" width="80.78" height="116.77"/><line class="cls-2" x1="172.2" y1="124.46" x2="150.54" y2="124.46"/><line class="cls-2" x1="117.25" y1="142.01" x2="0.64" y2="124.46"/><line class="cls-2" x1="116.47" y1="124.46" x2="116.47" y2="141.78"/><line class="cls-2" x1="77.36" y1="125.07" x2="77.36" y2="135.97"/><line class="cls-2" x1="41.3" y1="125.38" x2="41.3" y2="130.58"/><line class="cls-2" x1="117" y1="142" x2="123.18" y2="142"/><line class="cls-2" x1="157.91" y1="141.78" x2="164.1" y2="141.78"/><line class="cls-2" x1="200.49" y1="141.78" x2="210.2" y2="141.78"/></svg>