<svg id="Layer_2" data-name="Layer 2" xmlns="http://www.w3.org/2000/svg" viewBox="0 0 436.34 277.57"><defs><style>.cls-1{fill:none;stroke:#231f20;stroke-miterlimit:10;stroke-width:5px;}</style></defs><rect class="cls-1" x="92.5" y="2.5" width="262" height="202.35"/><polyline class="cls-1" points="354.5 216.19 354.5 204.85 2.5 204.85 2.5 216.19 128.35 216.19"/><rect class="cls-1" x="2.5" y="2.5" width="90" height="8.75"/><path class="cls-1" d="M436.33,377.4" transform="translate(-81.83 -161.21)"/><line class="cls-1" x1="115.87" y1="249.36" x2="28.42" y2="242.8"/><line class="cls-1" x1="30.82" y1="216.19" x2="30.82" y2="244.89"/><line class="cls-1" x1="178.5" y1="249.99" x2="413.33" y2="216.19"/><line class="cls-1" x1="237.42" y1="216.19" x2="237.42" y2="241.52"/><line class="cls-1" x1="290.63" y1="216.19" x2="290.63" y2="233.85"/><line class="cls-1" x1="342.58" y1="217.54" x2="342.58" y2="226.37"/><rect class="cls-1" x="354.5" y="210.52" width="79.34" height="5.67"/><circle class="cls-1" cx="147.48" cy="242.8" r="32.28"/><path class="cls-1" d="M210.18,377.4" transform="translate(-81.83 -161.21)"/><line class="cls-1" x1="354.5" y1="216.19" x2="165.74" y2="216.19"/></svg>